HIERARCHY
ROOT Hips
{
	OFFSET 0.000000 0.000000 0.000000
	CHANNELS 6 Xposition Yposition Zposition Zrotation Yrotation Xrotation 
	JOINT LHipJoint
	{
		OFFSET 0.000000 0.000000 0.000000
		CHANNELS 3 Zrotation Yrotation Xrotation
		JOINT LeftUpLeg
		{
			OFFSET 1.363060 -1.794630 0.839290
			CHANNELS 3 Zrotation Yrotation Xrotation
			JOINT LeftLeg
			{
				OFFSET 2.448110 -6.726130 0.000000
				CHANNELS 3 Zrotation Yrotation Xrotation
				JOINT LeftFoot
				{
					OFFSET 2.562200 -7.039590 0.000000
					CHANNELS 3 Zrotation Yrotation Xrotation
					JOINT LeftToeBase
					{
						OFFSET 0.157640 -0.433110 2.322550
						CHANNELS 3 Zrotation Yrotation Xrotation
						End Site
						{
							OFFSET 0.000000 0.000000 0.000000
						}
					}
				}
			}
		}
	}
	JOINT RHipJoint
	{
		OFFSET 0.000000 0.000000 0.000000
		CHANNELS 3 Zrotation Yrotation Xrotation
		JOINT RightUpLeg
		{
			OFFSET -1.305520 -1.794630 0.839290
			CHANNELS 3 Zrotation Yrotation Xrotation
			JOINT RightLeg
			{
				OFFSET -2.542530 -6.985550 0.000000
				CHANNELS 3 Zrotation Yrotation Xrotation
				JOINT RightFoot
				{
					OFFSET -2.568260 -7.056230 0.000000
					CHANNELS 3 Zrotation Yrotation Xrotation
					JOINT RightToeBase
					{
						OFFSET -0.164730 -0.452590 2.363150
						CHANNELS 3 Zrotation Yrotation Xrotation
						End Site
						{
							OFFSET 0.000000 0.000000 0.000000
						}
					}
				}
			}
		}
	}
	JOINT LowerBack
	{
		OFFSET 0.000000 0.000000 0.000000
		CHANNELS 3 Zrotation Yrotation Xrotation
		JOINT Spine
		{
			OFFSET 0.028270 2.035590 -0.193380
			CHANNELS 3 Zrotation Yrotation Xrotation
			JOINT Spine1
			{
				OFFSET 0.056720 2.048850 -0.042750
				CHANNELS 3 Zrotation Yrotation Xrotation
				JOINT Neck
				{
					OFFSET 0.000000 0.000000 0.000000
					CHANNELS 3 Zrotation Yrotation Xrotation
					JOINT Neck1
					{
						OFFSET -0.054170 1.746240 0.172020
						CHANNELS 3 Zrotation Yrotation Xrotation
						JOINT Head
						{
							OFFSET 0.104070 1.761360 -0.123970
							CHANNELS 3 Zrotation Yrotation Xrotation
							End Site
							{
								OFFSET 0.000000 0.000000 0.000000
							}
						}
					}
				}
				JOINT LeftShoulder
				{
					OFFSET 0.000000 0.000000 0.000000
					CHANNELS 3 Zrotation Yrotation Xrotation
					JOINT LeftArm
					{
						OFFSET 3.362410 1.200890 -0.311210
						CHANNELS 3 Zrotation Yrotation Xrotation
						JOINT LeftForeArm
						{
							OFFSET 4.983000 -0.000000 -0.000000
							CHANNELS 3 Zrotation Yrotation Xrotation
							JOINT LeftHand
							{
								OFFSET 3.483560 -0.000000 -0.000000
								CHANNELS 3 Zrotation Yrotation Xrotation
								JOINT LeftFingerBase
								{
									OFFSET 0.000000 0.000000 0.000000
									CHANNELS 3 Zrotation Yrotation Xrotation
									JOINT LeftHandIndex1
									{
										OFFSET 0.715260 -0.000000 -0.000000
										CHANNELS 3 Zrotation Yrotation Xrotation
										End Site
										{
											OFFSET 0.000000 0.000000 0.000000
										}
									}
								}
								JOINT LThumb
								{
									OFFSET 0.000000 0.000000 0.000000
									CHANNELS 3 Zrotation Yrotation Xrotation
									End Site
									{
										OFFSET 0.000000 0.000000 0.000000
									}
								}
							}
						}
					}
				}
				JOINT RightShoulder
				{
					OFFSET 0.000000 0.000000 0.000000
					CHANNELS 3 Zrotation Yrotation Xrotation
					JOINT RightArm
					{
						OFFSET -3.136600 1.374050 -0.404650
						CHANNELS 3 Zrotation Yrotation Xrotation
						JOINT RightForeArm
						{
							OFFSET -5.241900 -0.000000 -0.000000
							CHANNELS 3 Zrotation Yrotation Xrotation
							JOINT RightHand
							{
								OFFSET -3.444170 -0.000000 -0.000000
								CHANNELS 3 Zrotation Yrotation Xrotation
								JOINT RightFingerBase
								{
									OFFSET 0.000000 0.000000 0.000000
									CHANNELS 3 Zrotation Yrotation Xrotation
									JOINT RightHandIndex1
									{
										OFFSET -0.622530 -0.000000 -0.000000
										CHANNELS 3 Zrotation Yrotation Xrotation
										End Site
										{
											OFFSET 0.000000 0.000000 0.000000
										}
									}
								}
								JOINT RThumb
								{
									OFFSET 0.000000 0.000000 0.000000
									CHANNELS 3 Zrotation Yrotation Xrotation
									End Site
									{
										OFFSET 0.000000 0.000000 0.000000
									}
								}
							}
						}
					}
				}
			}
		}
	}
}
MOTION
Frames: 9
Frame Time: 0.008333
-18.060194 15.724059 -0.402520 116.384468 86.333493 140.470927 -6.657182 1.777881 10.506175 -7.223667 -22.409216 -69.348476 -0.940147 1.608596 39.147673 1.956496 7.185420 -6.564008 0.903200 -0.000000 -25.190300 11.628738 -5.767287 1.545808 4.609132 -12.357947 7.951446 1.436357 -0.354187 7.176039 0.432911 5.319517 17.224011 1.810900 0.000000 -84.891099 -8.405019 4.230601 -13.264639 -3.489833 4.692639 -5.470323 -7.983412 4.692195 2.132703 11.178055 -1.906097 -9.404788 -3.493425 -0.259208 -0.569680 0.000000 0.000000 0.000000 -1.485877 26.701157 2.131424 -35.897811 5.884587 -46.076880 -1.362913 -34.890856 0.026761 32.499709 -7.881591 -2.267420 0.132716 -0.084508 -0.000000 0.000000 0.000000 0.000000 0.000000 0.000000 0.000000 13.859459 7.225950 0.213632 74.548911 33.867526 55.524947 179.704240 80.086812 -179.958133 -7.516196 33.639323 -2.462721 0.319782 -1.373742 -0.000000 0.000000 0.000000 0.000000 0.000000 0.000000 0.000000 
-17.803491 15.773651 -0.405978 114.536167 86.250727 138.364424 -6.639045 1.827208 10.367091 -7.954745 -22.188638 -68.182676 -0.924268 1.654019 39.810798 2.046834 7.600218 -6.897153 0.864700 -0.000000 -24.907601 11.848936 -5.838296 1.558441 3.994809 -12.587805 6.766003 1.070789 -0.671388 10.133436 0.266895 5.888464 20.854616 2.484400 0.000000 -85.566500 -8.594965 4.262261 -13.214116 -3.547238 4.756113 -5.481727 -8.030499 4.760201 2.030300 11.213579 -1.937601 -9.339962 -3.485634 -0.259428 -0.551582 0.000000 0.000000 0.000000 -1.531171 26.594694 2.060230 -35.306985 5.167043 -46.079649 -1.350563 -35.364360 0.028027 32.444940 -8.770119 -2.521588 0.124013 -0.088461 -0.000000 0.000000 0.000000 0.000000 0.000000 0.000000 0.000000 13.900268 7.171270 0.177705 74.598241 33.129608 55.339476 179.792285 80.775095 -179.958999 -7.164695 33.576042 -2.340780 0.303560 -1.354739 -0.000000 0.000000 0.000000 0.000000 0.000000 0.000000 0.000000 
-17.551333 15.825909 -0.411219 112.487748 86.185411 135.984697 -6.651751 1.871760 10.172399 -8.826896 -21.751496 -66.798954 -0.952170 1.695349 40.311700 2.091674 7.812440 -7.269381 0.793700 0.000000 -24.587800 12.064571 -5.851215 1.553408 3.376525 -12.877032 5.462372 0.695735 -0.930808 13.359347 0.049116 6.399135 24.246393 3.183600 0.000001 -84.633600 -8.726620 4.275882 -13.090771 -3.585625 4.795318 -5.477664 -8.057348 4.804002 1.925379 11.211270 -1.959944 -9.264777 -3.479120 -0.259745 -0.530260 0.000000 0.000000 0.000000 -1.574255 26.467153 2.000194 -34.891914 4.518699 -46.066426 -1.337352 -35.852930 0.029114 32.435098 -9.595745 -2.761259 0.115148 -0.091198 -0.000000 0.000000 0.000000 0.000000 0.000000 0.000000 0.000000 13.922003 7.120619 0.127476 74.632304 32.375516 55.090140 179.890175 81.642235 -179.960039 -6.724536 33.456298 -2.186311 0.283926 -1.329451 -0.000000 0.000000 0.000000 0.000000 0.000000 0.000000 0.000000 
-17.303799 15.880241 -0.418244 110.373107 86.127892 133.475204 -6.694018 1.913653 9.930159 -9.797453 -21.118819 -65.229092 -1.017562 1.730238 40.660107 2.094898 7.829630 -7.696437 0.692100 0.000000 -24.213699 12.261124 -5.801589 1.530764 2.782234 -13.202216 4.065819 0.337934 -1.127389 16.808670 -0.206476 6.642667 27.211097 3.744500 -0.000000 -82.092500 -8.800538 4.267451 -12.901061 -3.603862 4.805227 -5.457621 -8.063160 4.818239 1.822867 11.169845 -1.981409 -9.183223 -3.472926 -0.260018 -0.506703 0.000000 0.000000 0.000000 -1.617316 26.325915 1.950493 -34.652105 3.930391 -46.031020 -1.323942 -36.344734 0.029998 32.488261 -10.346441 -2.985834 0.106409 -0.092710 -0.000000 0.000000 0.000000 0.000000 0.000000 0.000000 0.000000 13.920585 7.060307 0.062244 74.663781 31.618659 54.782670 179.994411 82.688517 -179.961118 -6.189803 33.270987 -1.998412 0.261230 -1.298057 -0.000000 0.000000 0.000000 0.000000 0.000000 0.000000 0.000000 
-17.061158 15.936163 -0.426470 108.259229 86.056002 130.908232 -6.755059 1.959298 9.652899 -10.837220 -20.336355 -63.493915 -1.115270 1.755155 40.853527 2.065080 7.682157 -8.185113 0.566400 0.000000 -23.791700 12.436307 -5.691168 1.482210 2.200827 -13.584049 2.590471 0.019555 -1.270445 20.449005 -0.480125 6.442696 29.569386 3.997701 -0.000000 -78.168201 -8.836192 4.231116 -12.647696 -3.605227 4.781444 -5.422077 -8.049323 4.798269 1.722682 11.094377 -2.008919 -9.095199 -3.467356 -0.260265 -0.480997 0.000000 0.000000 0.000000 -1.658854 26.156579 1.912406 -34.575850 3.418773 -45.958658 -1.311065 -36.838873 0.030645 32.612646 -11.001991 -3.191212 0.098031 -0.092993 0.000000 0.000000 0.000000 0.000000 0.000000 0.000000 0.000000 13.903420 6.979891 -0.015933 74.703462 30.863223 54.415789 -179.898471 83.911060 -179.962132 -5.562631 33.014447 -1.779273 0.236068 -1.261132 -0.000000 0.000000 0.000000 0.000000 0.000000 0.000000 0.000000 
-16.823090 15.993372 -0.435631 106.276529 85.959391 128.426549 -6.827214 2.012965 9.354759 -11.904963 -19.447845 -61.626792 -1.238330 1.766859 40.894123 2.011780 7.405355 -8.737261 0.424200 -0.000001 -23.343100 12.586218 -5.529141 1.403533 1.636409 -14.025573 1.041649 -0.246976 -1.379073 24.239852 -0.755511 5.647147 31.180640 3.796800 0.000000 -73.311600 -8.843622 4.164773 -12.341095 -3.591926 4.722324 -5.372643 -8.019499 4.742164 1.626438 10.992309 -2.052304 -9.003203 -3.462907 -0.260513 -0.453859 0.000000 0.000000 0.000000 -1.706172 25.953639 1.884142 -34.639469 2.981500 -45.834368 -1.300444 -37.326691 0.031106 32.806546 -11.556530 -3.376494 0.090211 -0.092304 0.000000 0.000000 0.000000 0.000000 0.000000 0.000000 0.000000 13.880547 6.867171 -0.104572 74.757520 30.110335 53.986627 -179.791390 85.300594 -179.963019 -4.857047 32.685272 -1.535776 0.209324 -1.219510 -0.000000 0.000000 0.000000 0.000000 0.000000 0.000000 0.000000 
-16.589304 16.051671 -0.445119 104.485505 85.822724 126.103792 -6.898544 2.079304 9.050890 -12.974287 -18.508713 -59.653837 -1.381165 1.762389 40.776534 1.946106 7.046049 -9.344074 0.275100 -0.000000 -22.902300 12.715431 -5.324737 1.290960 1.075115 -14.533597 -0.582136 -0.461297 -1.475176 28.139267 -1.022362 4.202980 31.946675 3.088200 0.000000 -68.064200 -8.844646 4.066665 -11.991869 -3.569556 4.628616 -5.310708 -7.978687 4.650747 1.537588 10.875973 -2.118761 -8.911324 -3.460012 -0.260746 -0.426690 0.000000 0.000000 0.000000 -1.760087 25.731477 1.861903 -34.814946 2.570790 -45.655363 -1.294035 -37.776552 0.031352 33.056341 -12.020196 -3.543381 0.083031 -0.090802 0.000000 0.000000 0.000000 0.000000 0.000000 0.000000 0.000000 13.865993 6.712473 -0.203446 74.831802 29.353450 53.482055 -179.686148 86.842445 -179.963790 -4.091231 32.288525 -1.276205 0.181822 -1.174245 -0.000000 0.000000 0.000000 0.000000 0.000000 0.000000 0.000000 
-16.359040 16.110985 -0.455113 102.989034 85.654939 124.066236 -6.967874 2.156559 8.754561 -13.999413 -17.553785 -57.621432 -1.535943 1.740100 40.509008 1.876292 6.639629 -9.994465 0.126400 -0.000001 -22.499200 12.820097 -5.090895 1.152123 0.544965 -15.070225 -2.289651 -0.629906 -1.577955 32.092849 -1.276454 2.145712 31.822048 1.918800 0.000000 -62.937300 -8.833644 3.940601 -11.622639 -3.538770 4.503618 -5.240870 -7.933042 4.527062 1.456006 10.754377 -2.216597 -8.821564 -3.459906 -0.261112 -0.399877 0.000000 0.000000 0.000000 -1.838722 25.480898 1.842134 -35.066179 2.188131 -45.401213 -1.294488 -38.182941 0.031556 33.341546 -12.396603 -3.690573 0.076590 -0.089017 0.000000 0.000000 0.000000 0.000000 0.000000 0.000000 0.000000 13.871606 6.509384 -0.309047 74.923654 28.581618 52.891017 -179.583875 88.517202 -179.964479 -3.298334 31.835408 -1.013733 0.154694 -1.126529 -0.000000 0.000000 0.000000 0.000000 0.000000 0.000000 0.000000 
-16.131789 16.171331 -0.465420 101.765083 85.458658 122.311859 -7.030547 2.243200 8.477513 -14.956271 -16.622434 -55.561860 -1.697174 1.698798 40.091767 1.810190 6.225228 -10.669082 -0.015200 0.000000 -22.159700 12.903733 -4.836925 0.994630 0.053638 -15.608579 -4.093028 -0.762853 -1.700904 36.049718 -1.515119 -0.360132 30.796345 0.456001 -0.000000 -58.205399 -8.815749 3.790390 -11.252856 -3.502871 4.352396 -5.167482 -7.888489 4.376203 1.381145 10.638112 -2.350156 -8.735120 -3.463890 -0.261755 -0.373775 0.000000 0.000000 0.000000 -1.951831 25.197837 1.821706 -35.359835 1.820118 -45.058771 -1.303975 -38.532409 0.031823 33.635020 -12.694117 -3.816767 0.070933 -0.087333 0.000000 0.000000 0.000000 0.000000 0.000000 0.000000 0.000000 13.910514 6.255910 -0.419001 75.029103 27.779747 52.194382 0.515116 89.698225 0.034831 -2.514533 31.344202 -0.761143 0.128953 -1.077627 -0.000000 0.000000 0.000000 0.000000 0.000000 0.000000 0.000000 
